<svg fill="currentColor" width="96" height="96" xmlns="http://www.w3.org/2000/svg" xmlns:xlink="http://www.w3.org/1999/xlink" xml:space="preserve" overflow="hidden">
<g transform="translate(-38 -70)"><path d="M126.5 114.7 121.3 115C121 115 120.7 115.2 120.6 115.4 119.8 116.5 118.3 116.8 117.1 116 117 115.9 116.9 115.8 116.7 115.7 116.5 115.5 116.1 115.4 115.8 115.4L114.8 115.6C114.3 109.5 111.9 103.8 108 99.2L108.8 98.6C109.1 98.4 109.2 98.1 109.2 97.8 109.2 96.4 110.3 95.3 111.7 95.3 111.9 95.3 112 95.3 112.2 95.3 112.5 95.3 112.8 95.3 113 95.1L116.8 91.8C118.2 90.6 118.4 88.4 117.2 87 117.2 87 117.2 87 117.2 87 116 85.7 113.9 85.6 112.5 86.8 112.4 86.9 112.3 87 112.3 87L108.8 91C108.6 91.2 108.5 91.5 108.6 91.8 108.8 93.2 108 94.5 106.6 94.7 106.5 94.7 106.3 94.7 106.1 94.7 105.8 94.7 105.5 94.9 105.3 95.1L104.7 95.9C100.1 92 94.3 89.6 88.3 89.1L88.5 88.1C88.6 87.8 88.5 87.5 88.2 87.2 87.2 86.2 87.2 84.7 88.2 83.7 88.3 83.6 88.4 83.5 88.6 83.4 88.8 83.2 89 83 89 82.7L89.3 77.7C89.4 75.8 88 74.2 86.1 74 84.3 73.9 82.7 75.3 82.7 77.2 82.7 77.3 82.7 77.4 82.7 77.5L83 82.7C83 83 83.2 83.3 83.4 83.4 84.5 84.2 84.8 85.7 84 86.9 83.9 87 83.8 87.1 83.7 87.3 83.5 87.5 83.4 87.9 83.4 88.2L83.6 89.2C77.5 89.7 71.8 92.1 67.2 96L66.6 95.2C66.4 94.9 66.1 94.8 65.8 94.8 64.4 94.8 63.3 93.7 63.3 92.3 63.3 92.1 63.3 92 63.3 91.8 63.3 91.5 63.3 91.2 63.1 91L59.8 87.2C58.6 85.8 56.4 85.6 55 86.8 55 86.8 55 86.8 55 86.8 53.7 88 53.6 90.1 54.8 91.5 54.9 91.6 55 91.7 55 91.7L58.9 95.2C59.1 95.4 59.4 95.5 59.7 95.4 61.1 95.2 62.4 96 62.6 97.4 62.6 97.5 62.6 97.7 62.6 97.9 62.6 98.2 62.8 98.5 63 98.7L63.8 99.3C59.9 103.9 57.5 109.7 57 115.7L56 115.5C55.7 115.4 55.4 115.5 55.1 115.8 54.1 116.8 52.6 116.8 51.6 115.8 51.5 115.7 51.4 115.6 51.3 115.4 51.3 115.2 51 115 50.7 115L45.7 114.7C43.8 114.6 42.2 116 42 117.8 42 117.8 42 117.8 42 117.8 41.9 119.6 43.3 121.2 45.2 121.2 45.3 121.2 45.4 121.2 45.5 121.2L50.7 120.9C51 120.9 51.3 120.7 51.4 120.5 52.2 119.4 53.7 119.1 54.9 119.9 55 120 55.1 120.1 55.3 120.2 55.5 120.4 55.9 120.5 56.2 120.5L57.2 120.3C57.7 126.4 60.1 132.1 64 136.7L63.2 137.3C62.9 137.5 62.8 137.8 62.8 138.1 62.8 139.5 61.7 140.6 60.3 140.6 60.1 140.6 60 140.6 59.8 140.6 59.5 140.6 59.2 140.6 59 140.8L55.2 144.1C53.8 145.3 53.6 147.5 54.8 148.9 54.8 148.9 54.8 148.9 54.8 148.9 56 150.2 58.1 150.3 59.5 149.1 59.6 149 59.7 148.9 59.7 148.9L63.2 145C63.4 144.8 63.5 144.5 63.4 144.2 63.2 142.8 64 141.5 65.4 141.3 65.5 141.3 65.7 141.3 65.9 141.3 66.2 141.3 66.5 141.1 66.7 140.9L67.3 140.1C71.9 144.1 77.7 146.4 83.7 146.9L83.5 147.9C83.4 148.2 83.5 148.5 83.8 148.8 84.8 149.8 84.8 151.3 83.8 152.3 83.7 152.4 83.6 152.5 83.4 152.6 83.2 152.7 83 153 83 153.3L82.7 158.3C82.5 160.2 84 161.8 85.8 162 87.6 162.1 89.2 160.7 89.2 158.8 89.2 158.7 89.2 158.6 89.2 158.5L89 153.3C89 153 88.8 152.7 88.6 152.6 87.5 151.8 87.2 150.3 88 149.1 88.1 149 88.2 148.9 88.3 148.7 88.5 148.5 88.6 148.1 88.6 147.8L88.4 146.8C94.5 146.3 100.2 143.9 104.8 140L105.4 140.8C105.6 141.1 105.9 141.2 106.2 141.2 107.6 141.2 108.7 142.3 108.7 143.7 108.7 143.9 108.7 144 108.7 144.2 108.7 144.5 108.7 144.8 108.9 145L112.2 148.8C113.4 150.2 115.6 150.4 117 149.2 117 149.2 117 149.2 117 149.2 118.3 148 118.4 145.9 117.2 144.5 117.1 144.4 117 144.3 117 144.3L113 140.8C112.8 140.6 112.5 140.5 112.2 140.6 110.8 140.8 109.5 140 109.3 138.6 109.3 138.5 109.3 138.3 109.3 138.1 109.3 137.8 109.1 137.5 108.9 137.3L108.1 136.7C112 132.1 114.4 126.3 114.9 120.3L115.9 120.5C116.2 120.6 116.5 120.5 116.8 120.2 117.8 119.2 119.3 119.2 120.3 120.2 120.4 120.3 120.5 120.4 120.6 120.6 120.8 120.8 121 121 121.3 121L126.3 121.3C128.2 121.5 129.8 120.1 130 118.2 130 118.2 130 118.2 130 118.2 130.1 116.4 128.7 114.8 126.8 114.8 126.7 114.7 126.6 114.7 126.5 114.7ZM63.1 120C64.2 119.7 65.3 119.5 66.4 119.5 67.2 120.9 69 121.4 70.5 120.6 71 120.3 71.3 120 71.6 119.5 72.8 119.5 74.1 119.7 75.2 120.1 75.5 121.6 76.1 123 76.9 124.2 76.3 125.3 75.6 126.3 74.7 127.2 73.1 126.8 71.5 127.7 71 129.3 70.9 129.8 70.9 130.4 71 130.9 70.2 131.7 69.3 132.4 68.3 132.9 65.4 129.2 63.5 124.7 63.1 120ZM68.4 103.2C69.4 103.7 70.3 104.4 71.1 105.2 70.7 106.8 71.6 108.4 73.2 108.9 73.7 109 74.3 109 74.8 108.9 75.7 109.8 76.4 110.8 77 111.9 76.2 113.1 75.6 114.5 75.3 116 74.1 116.4 72.9 116.6 71.7 116.6 70.9 115.2 69.1 114.7 67.6 115.5 67.1 115.8 66.8 116.1 66.5 116.6 65.4 116.6 64.3 116.4 63.2 116.1 63.5 111.3 65.4 106.8 68.4 103.2L68.4 103.2ZM95.1 106.8 95.1 106.8C94.2 107.7 93.2 108.4 92.1 109 90.9 108.2 89.5 107.6 88 107.3 87.6 106.1 87.4 104.9 87.4 103.7 88.8 102.9 89.3 101.1 88.5 99.6 88.2 99.1 87.9 98.8 87.4 98.5 87.4 97.4 87.6 96.3 87.9 95.2 92.6 95.6 97.1 97.5 100.7 100.5 100.2 101.5 99.5 102.4 98.7 103.2 97.1 102.8 95.5 103.7 95 105.3 95 105.7 95 106.2 95.1 106.8L95.1 106.8ZM84 95.1C84.3 96.2 84.5 97.3 84.5 98.4 83.1 99.2 82.6 101 83.4 102.5 83.7 103 84 103.3 84.5 103.6 84.5 104.8 84.3 106 83.9 107.2 82.4 107.5 81 108.1 79.8 108.9 78.7 108.3 77.7 107.6 76.8 106.7 77.2 105.1 76.3 103.5 74.7 103 74.2 102.9 73.6 102.9 73.1 103 72.3 102.2 71.6 101.3 71.1 100.3 74.8 97.4 79.3 95.5 84 95.1ZM73.2 132.9C74.8 133.3 76.4 132.4 76.9 130.8 77 130.3 77 129.7 76.9 129.2 77.8 128.3 78.8 127.6 79.9 127 81.1 127.8 82.5 128.4 84 128.7 84.4 129.9 84.6 131.1 84.6 132.3 83.2 133.1 82.7 134.9 83.5 136.4 83.8 136.9 84.1 137.2 84.6 137.5 84.6 138.6 84.4 139.7 84.1 140.8 79.4 140.4 74.9 138.5 71.3 135.5 71.7 134.6 72.4 133.7 73.2 132.9ZM88 140.9C87.7 139.8 87.5 138.7 87.5 137.6 88.9 136.8 89.4 135 88.6 133.5 88.3 133 88 132.7 87.5 132.4 87.5 131.2 87.7 130 88.1 128.8 89.6 128.5 91 127.9 92.2 127.1 93.3 127.7 94.3 128.4 95.2 129.3 94.8 130.9 95.7 132.5 97.3 133 97.8 133.1 98.4 133.1 98.9 133 99.7 133.8 100.4 134.7 100.9 135.7 97.2 138.6 92.7 140.5 88 140.9L88 140.9ZM103.6 132.8C102.6 132.3 101.7 131.6 100.9 130.8 101.3 129.2 100.4 127.6 98.8 127.1 98.3 127 97.7 127 97.2 127.1 96.3 126.2 95.6 125.2 95 124.1 95.8 122.9 96.4 121.5 96.7 120 97.9 119.6 99.1 119.4 100.3 119.4 101.1 120.8 102.9 121.3 104.4 120.5 104.9 120.2 105.2 119.9 105.5 119.4 106.6 119.4 107.7 119.6 108.8 119.9 108.5 124.7 106.7 129.2 103.6 132.8ZM105.6 116.5C104.8 115.1 103 114.6 101.5 115.4 101 115.7 100.7 116 100.4 116.5 99.2 116.5 98 116.3 96.8 115.9 96.5 114.4 95.9 113 95.1 111.8 95.7 110.7 96.4 109.7 97.3 108.8 98.9 109.2 100.5 108.3 101 106.7 101.1 106.2 101.1 105.6 101 105.1 101.8 104.3 102.7 103.6 103.7 103.1 106.8 106.7 108.6 111.2 109 115.9 107.9 116.3 106.7 116.5 105.6 116.5L105.6 116.5Z"/></g></svg>